<svg xmlns="http://www.w3.org/2000/svg" viewBox="0 0 16 16" width="160" height="160"><rect x="3" y="3" width="1" height="1" fill="#333333" /><rect x="4" y="3" width="1" height="1" fill="#333333" /><rect x="5" y="3" width="1" height="1" fill="#333333" /><rect x="6" y="3" width="1" height="1" fill="#333333" /><rect x="3" y="4" width="1" height="1" fill="#333333" /><rect x="3" y="5" width="1" height="1" fill="#333333" /><rect x="3" y="6" width="1" height="1" fill="#333333" /><rect x="5" y="6" width="1" height="1" fill="#333333" /><rect x="4" y="6" width="1" height="1" fill="#333333" /><rect x="6" y="6" width="1" height="1" fill="#333333" /><rect x="6" y="5" width="1" height="1" fill="#333333" /><rect x="6" y="4" width="1" height="1" fill="#333333" /><rect x="9" y="3" width="1" height="1" fill="#00ff00" /><rect x="9" y="4" width="1" height="1" fill="#00ff00" /><rect x="9" y="5" width="1" height="1" fill="#00ff00" /><rect x="9" y="6" width="1" height="1" fill="#00ff00" /><rect x="10" y="6" width="1" height="1" fill="#00ff00" /><rect x="11" y="6" width="1" height="1" fill="#00ff00" /><rect x="12" y="6" width="1" height="1" fill="#00ff00" /><rect x="12" y="5" width="1" height="1" fill="#00ff00" /><rect x="12" y="4" width="1" height="1" fill="#00ff00" /><rect x="12" y="3" width="1" height="1" fill="#00ff00" /><rect x="11" y="3" width="1" height="1" fill="#00ff00" /><rect x="10" y="3" width="1" height="1" fill="#00ff00" /><rect x="3" y="9" width="1" height="1" fill="#333333" /><rect x="4" y="9" width="1" height="1" fill="#333333" /><rect x="3" y="10" width="1" height="1" fill="#333333" /><rect x="3" y="11" width="1" height="1" fill="#333333" /><rect x="3" y="12" width="1" height="1" fill="#333333" /><rect x="5" y="12" width="1" height="1" fill="#333333" /><rect x="4" y="12" width="1" height="1" fill="#333333" /><rect x="6" y="12" width="1" height="1" fill="#333333" /><rect x="6" y="9" width="1" height="1" fill="#333333" /><rect x="6" y="10" width="1" height="1" fill="#333333" /><rect x="6" y="11" width="1" height="1" fill="#333333" /><rect x="5" y="9" width="1" height="1" fill="#333333" /><rect x="9" y="9" width="1" height="1" fill="#333333" /><rect x="9" y="10" width="1" height="1" fill="#333333" /><rect x="9" y="11" width="1" height="1" fill="#333333" /><rect x="9" y="12" width="1" height="1" fill="#333333" /><rect x="10" y="12" width="1" height="1" fill="#333333" /><rect x="11" y="12" width="1" height="1" fill="#333333" /><rect x="12" y="12" width="1" height="1" fill="#333333" /><rect x="12" y="11" width="1" height="1" fill="#333333" /><rect x="12" y="10" width="1" height="1" fill="#333333" /><rect x="12" y="9" width="1" height="1" fill="#333333" /><rect x="11" y="9" width="1" height="1" fill="#333333" /><rect x="10" y="9" width="1" height="1" fill="#333333" /><rect x="10" y="5" width="1" height="1" fill="#00ff00" /><rect x="11" y="4" width="1" height="1" fill="#00ff00" /><rect x="10" y="4" width="1" height="1" fill="#00ff00" /><rect x="11" y="5" width="1" height="1" fill="#00ff00" /></svg>